<?xml version="1.0" encoding="UTF-8"?>
<svg width="20px" height="20px" viewBox="0 0 20 20" version="1.1" xmlns="http://www.w3.org/2000/svg" xmlns:xlink="http://www.w3.org/1999/xlink">
    <!-- Generator: Sketch 46.2 (44496) - http://www.bohemiancoding.com/sketch -->
    <title>Basket - simple-line-icons</title>
    <desc>Created with Sketch.</desc>
    <defs></defs>
    <g id="Symbols" stroke="none" stroke-width="1" fill="none" fill-rule="evenodd">
        <g id="menuheader" transform="translate(-1315.000000, -12.000000)" fill="#2D2D2D">
            <g id="Group-3">
                <g id="MENU">
                    <g id="carrinho" transform="translate(1301.000000, 0.000000)">
                        <path d="M33.84375,17.796875 C33.8958336,17.8750004 33.9283854,17.9661453 33.9414062,18.0703125 C33.9544271,18.1744797 33.9479168,18.272135 33.921875,18.3632812 L30.9335937,27.1523438 C30.8945311,27.2695318 30.819662,27.3671871 30.7089844,27.4453125 C30.5983067,27.5234379 30.4778652,27.5625 30.3476562,27.5625 L21.9101562,27.5625 C21.7799473,27.5625 21.6595058,27.5201827 21.5488281,27.4355469 C21.4381505,27.350911 21.3632814,27.2434902 21.3242187,27.1132812 L17.8671875,14.4179688 C17.7760412,14.1054672 17.6783859,13.9231773 17.5742188,13.8710938 C17.4700516,13.8190102 17.3919273,13.7929688 17.3398438,13.7929688 L14.6640625,13.7929688 C14.4947908,13.7929688 14.3515631,13.7343756 14.234375,13.6171875 C14.1171869,13.4999994 14.0585938,13.3567717 14.0585938,13.1875 C14.0585938,13.0052074 14.1171869,12.8554693 14.234375,12.7382812 C14.3515631,12.6210932 14.4947908,12.5625 14.6640625,12.5625 L17.3398438,12.5625 C17.5351572,12.5625 17.8216127,12.6438794 18.1992188,12.8066406 C18.5768248,12.9694019 18.8632803,13.3893195 19.0585938,14.0664062 L20.0742187,17.5234375 L33.3359375,17.5234375 C33.4270838,17.5234375 33.5182287,17.5494789 33.609375,17.6015625 C33.7005213,17.6536461 33.7786455,17.7187496 33.84375,17.796875 Z M29.9179688,26.3125 L32.4375,18.7734375 L20.40625,18.7734375 L22.3984375,26.3125 L29.9179688,26.3125 Z M28.6875,28.8125 C28.2578104,28.8125 27.8899755,28.9654933 27.5839844,29.2714844 C27.2779933,29.5774755 27.125,29.9453104 27.125,30.375 C27.125,30.8046896 27.2779933,31.1725245 27.5839844,31.4785156 C27.8899755,31.7845067 28.2578104,31.9375 28.6875,31.9375 C29.1171896,31.9375 29.4850245,31.7845067 29.7910156,31.4785156 C30.0970067,31.1725245 30.25,30.8046896 30.25,30.375 C30.25,29.9453104 30.0970067,29.5774755 29.7910156,29.2714844 C29.4850245,28.9654933 29.1171896,28.8125 28.6875,28.8125 Z M23.0625,28.8125 C22.6328104,28.8125 22.2649755,28.9654933 21.9589844,29.2714844 C21.6529933,29.5774755 21.5,29.9453104 21.5,30.375 C21.5,30.8046896 21.6529933,31.1725245 21.9589844,31.4785156 C22.2649755,31.7845067 22.6328104,31.9375 23.0625,31.9375 C23.4921896,31.9375 23.8600245,31.7845067 24.1660156,31.4785156 C24.4720067,31.1725245 24.625,30.8046896 24.625,30.375 C24.625,29.9453104 24.4720067,29.5774755 24.1660156,29.2714844 C23.8600245,28.9654933 23.4921896,28.8125 23.0625,28.8125 Z" id="Basket---simple-line-icons"></path>
                    </g>
                </g>
            </g>
        </g>
    </g>
</svg>