<?xml version="1.0" encoding="UTF-8"?>
<svg width="66px" height="46px" viewBox="0 0 66 46" version="1.1" xmlns="http://www.w3.org/2000/svg" xmlns:xlink="http://www.w3.org/1999/xlink">
    <!-- Generator: Sketch 46.2 (44496) - http://www.bohemiancoding.com/sketch -->
    <title>visualizar_icon</title>
    <desc>Created with Sketch.</desc>
    <defs></defs>
    <g id="Page-1" stroke="none" stroke-width="1" fill="none" fill-rule="evenodd">
        <g id="inicial" transform="translate(-526.000000, -1693.000000)" fill="#FFFFFF">
            <g id="produto2" transform="translate(410.000000, 1499.000000)">
                <g id="hover">
                    <path d="M149.1875,205.0625 C152.52085,205.0625 155.354155,206.239572 157.6875,208.59375 C160.020845,210.947928 161.1875,213.770817 161.1875,217.0625 C161.1875,220.39585 160.020845,223.229155 157.6875,225.5625 C155.354155,227.895845 152.52085,229.0625 149.1875,229.0625 C145.895817,229.0625 143.072928,227.895845 140.71875,225.5625 C138.364572,223.229155 137.1875,220.39585 137.1875,217.0625 C137.1875,213.770817 138.364572,210.947928 140.71875,208.59375 C143.072928,206.239572 145.895817,205.0625 149.1875,205.0625 Z M149.1875,225.0625 C151.395844,225.0625 153.270826,224.270841 154.8125,222.6875 C156.354174,221.104159 157.125,219.208344 157.125,217 C157.125,214.791656 156.343758,212.906258 154.78125,211.34375 C153.218742,209.781242 151.333344,209 149.125,209 C146.916656,209 145.031258,209.781242 143.46875,211.34375 C141.906242,212.906258 141.125,214.791656 141.125,217 C141.125,219.208344 141.927075,221.104159 143.53125,222.6875 C145.135425,224.270841 147.020823,225.0625 149.1875,225.0625 Z M181,216.5625 C181,216.645834 181.010417,216.729166 181.03125,216.8125 C181.052083,216.895834 181.0625,216.979166 181.0625,217.0625 C181.0625,217.145834 181.052083,217.239583 181.03125,217.34375 C181.010417,217.447917 181,217.541666 181,217.625 C180.958333,217.666667 180.9375,217.708333 180.9375,217.75 L180.9375,217.9375 L180.875,218 L180.875,218.09375 C180.875,218.114583 180.854167,218.145833 180.8125,218.1875 C179.395826,221.52085 177.562511,224.479154 175.3125,227.0625 C173.062489,229.645846 170.541681,231.822908 167.75,233.59375 C164.958319,235.364592 161.968766,236.718745 158.78125,237.65625 C155.593734,238.593755 152.33335,239.0625 149,239.0625 C145.66665,239.0625 142.406266,238.593755 139.21875,237.65625 C136.031234,236.718745 133.041681,235.364592 130.25,233.59375 C127.458319,231.822908 124.937511,229.645846 122.6875,227.0625 C120.437489,224.479154 118.583341,221.52085 117.125,218.1875 L117.125,218 L117.09375,217.96875 C117.072917,217.947917 117.0625,217.916667 117.0625,217.875 L117.0625,217.75 C117.0625,217.708333 117.041667,217.645834 117,217.5625 C117,217.479166 116.989583,217.395834 116.96875,217.3125 C116.947917,217.229166 116.9375,217.145834 116.9375,217.0625 C116.9375,216.979166 116.947917,216.885417 116.96875,216.78125 C116.989583,216.677083 117,216.583334 117,216.5 C117.041667,216.458333 117.0625,216.416667 117.0625,216.375 L117.0625,216.1875 L117.125,216.125 L117.125,215.9375 C118.583341,212.60415 120.447905,209.63543 122.71875,207.03125 C124.989595,204.42707 127.520819,202.229176 130.3125,200.4375 C133.104181,198.645824 136.104151,197.281255 139.3125,196.34375 C142.520849,195.406245 145.79165,194.9375 149.125,194.9375 C152.45835,194.9375 155.718734,195.406245 158.90625,196.34375 C162.093766,197.281255 165.062486,198.645824 167.8125,200.4375 C170.562514,202.229176 173.062489,204.42707 175.3125,207.03125 C177.562511,209.63543 179.395826,212.60415 180.8125,215.9375 C180.854167,215.979167 180.875,216.010417 180.875,216.03125 L180.875,216.125 L180.90625,216.15625 C180.927083,216.177083 180.9375,216.208333 180.9375,216.25 L180.9375,216.375 C180.9375,216.416667 180.958333,216.479166 181,216.5625 Z M149,235.0625 C151.833348,235.0625 154.635403,234.687504 157.40625,233.9375 C160.177097,233.187496 162.781238,232.062507 165.21875,230.5625 C167.656262,229.062493 169.885407,227.187511 171.90625,224.9375 C173.927093,222.687489 175.60416,220.062515 176.9375,217.0625 C175.60416,214.062485 173.93751,211.437511 171.9375,209.1875 C169.93749,206.937489 167.718762,205.052091 165.28125,203.53125 C162.843738,202.010409 160.250014,200.864587 157.5,200.09375 C154.749986,199.322913 151.958348,198.9375 149.125,198.9375 C146.291652,198.9375 143.489597,199.322913 140.71875,200.09375 C137.947903,200.864587 135.333346,202.010409 132.875,203.53125 C130.416654,205.052091 128.166677,206.937489 126.125,209.1875 C124.083323,211.437511 122.39584,214.062485 121.0625,217.0625 C122.39584,220.062515 124.083323,222.687489 126.125,224.9375 C128.166677,227.187511 130.406238,229.062493 132.84375,230.5625 C135.281262,232.062507 137.874986,233.187496 140.625,233.9375 C143.375014,234.687504 146.166652,235.0625 149,235.0625 Z" id="visualizar_icon"></path>
                </g>
            </g>
        </g>
    </g>
</svg>