<?xml version="1.0" encoding="UTF-8"?>
<svg width="341px" height="40px" viewBox="0 0 341 40" version="1.1" xmlns="http://www.w3.org/2000/svg" xmlns:xlink="http://www.w3.org/1999/xlink">
    <!-- Generator: Sketch 46.2 (44496) - http://www.bohemiancoding.com/sketch -->
    <title>LOGO_WHITE</title>
    <desc>Created with Sketch.</desc>
    <defs></defs>
    <g id="STYLE-GUIDE" stroke="none" stroke-width="1" fill="none" fill-rule="evenodd">
        <g id="styleguide" transform="translate(-601.000000, -156.000000)" fill="#FFFFFF">
            <g id="LOGO_WHITE" transform="translate(601.000000, 156.000000)">
                <path d="M0.0039,0.5841 L17.7469,0.6561 L17.7429,1.6051 L12.6209,1.5841 L22.3359,28.0281 L30.1849,6.9901 C30.5579,5.9371 30.8279,4.6171 30.8319,3.6131 C30.8369,2.3481 30.0469,1.6551 28.2519,1.6481 L26.8789,1.6421 L26.8819,0.6931 L36.9689,0.7341 L36.9649,1.6831 L36.1189,1.6801 C34.6939,1.6741 33.5289,2.1461 31.3419,7.8931 L19.5999,38.6861 L17.4869,38.6771 L3.7489,1.5481 L-0.0001,1.5331 L0.0039,0.5841 Z" id="Fill-1"></path>
                <path d="M47.3872,37.0031 L48.0742,37.0061 C50.0802,36.8541 51.0362,35.5941 51.6772,33.8531 L64.0662,0.0001 L64.8582,0.0031 L78.8612,37.1311 L81.4492,37.1421 L81.4452,38.0921 L65.7072,38.0281 L65.7112,37.0781 L69.9362,37.0951 L66.1262,26.0971 L55.8792,26.0551 L53.3162,33.4881 C53.1572,33.9111 52.9422,34.4921 52.9402,35.0701 C52.9332,36.8151 54.4102,37.0311 55.4672,37.0351 L56.9462,37.0421 L56.9422,37.9931 L47.3832,37.9541 L47.3872,37.0031 Z M65.7072,25.1421 L65.7072,25.1421 L61.1662,11.7641 L61.0612,11.7631 L56.3072,25.1041 L65.7072,25.1421 Z" id="Fill-4"></path>
                <path d="M97.1343,37.2052 L97.5043,37.2062 L98.0863,37.2082 C99.7223,37.2152 101.2573,36.6382 101.2703,33.4192 L101.3843,5.0612 L99.0743,1.9352 L97.4373,1.9282 L97.4413,0.9792 L108.3183,1.0232 L128.1233,26.7152 L128.2303,26.7162 L128.3183,5.0672 C128.3253,3.0592 127.0613,2.0482 124.7383,2.0392 L123.7353,2.0352 L123.7393,1.0862 L133.7193,1.1262 L133.7163,2.0762 L132.9753,2.0732 C130.6003,2.0632 129.5913,3.5942 129.5863,4.9142 L129.4483,38.9182 L127.2293,38.9082 L102.7513,6.7042 L102.6463,6.7042 L102.5363,33.6872 C102.5243,36.6992 103.6833,37.2312 106.6413,37.2432 L107.1143,37.2452 L107.1113,38.1962 L97.1303,38.1552 L97.1343,37.2052 Z" id="Fill-6"></path>
                <path d="M150.5801,37.422 L154.8571,37.44 L155.0001,2.162 L150.7231,2.144 L150.7271,1.195 L168.0461,1.266 L168.0421,2.214 L163.2381,2.195 L163.1711,18.621 L175.2601,6.629 C176.4271,5.524 177.6441,4.315 177.6481,3.416 C177.6501,2.731 176.9661,2.251 174.9081,2.243 L173.9571,2.239 L173.9601,1.29 L187.4791,1.344 L187.4761,2.294 L186.1011,2.288 C182.6161,2.274 179.7061,4.112 177.4271,6.321 L169.8441,13.79 L185.3251,37.563 L189.1271,37.578 L189.1231,38.528 L171.4351,38.458 L171.4391,37.506 L175.5571,37.524 L163.9611,19.36 L163.1651,20.098 L163.0951,37.472 L167.5841,37.49 L167.5801,38.443 L150.5761,38.372 L150.5801,37.422 Z" id="Fill-8"></path>
                <path d="M219.3291,0.63 C229.3091,0.671 236.0861,9.78 236.0441,20.129 C236.2151,30.007 228.5181,39.532 219.1721,39.494 C209.8251,39.456 202.2081,29.869 202.4571,19.993 C202.4991,9.644 209.3501,0.589 219.3291,0.63 M227.1731,20.094 L227.1731,20.094 C227.2401,3.406 223.3911,1.595 219.3261,1.579 C215.2601,1.563 211.3971,3.342 211.3301,20.029 C211.2751,33.443 212.9971,38.521 219.1761,38.545 C225.3531,38.57 227.1181,33.507 227.1731,20.094" id="Fill-10"></path>
                <path d="M254.4062,37.8429 L258.6822,37.8599 L258.8262,2.5829 L254.5502,2.5659 L254.5532,1.6159 L271.8742,1.6869 L271.8702,2.6359 L267.0652,2.6159 L266.9982,19.0419 L279.0852,7.0499 C280.2542,5.9459 281.4732,4.7359 281.4772,3.8369 C281.4802,3.1519 280.7942,2.6719 278.7352,2.6639 L277.7842,2.6599 L277.7872,1.7109 L291.3052,1.7649 L291.3022,2.7149 L289.9282,2.7089 C286.4452,2.6949 283.5332,4.5319 281.2542,6.7419 L273.6712,14.2109 L289.1532,37.9839 L292.9562,37.9989 L292.9522,38.9499 L275.2612,38.8779 L275.2642,37.9269 L279.3862,37.9439 L267.7862,19.7809 L266.9922,20.5189 L266.9222,37.8939 L271.4102,37.9109 L271.4062,38.8629 L254.4022,38.7939 L254.4062,37.8429 Z" id="Fill-12"></path>
                <path d="M309.0146,38.0636 L313.2906,38.0816 L313.4336,2.8046 L309.1576,2.7876 L309.1606,1.8376 L338.6806,1.9576 L338.6376,12.4676 L337.6866,12.4636 L337.6896,11.7236 C337.7086,6.9186 334.1876,2.8886 327.9036,2.8626 L321.6706,2.8376 L321.6056,18.9996 L325.2496,19.0146 C328.6826,19.0286 330.4886,17.0816 330.5076,12.0636 L330.5106,11.4826 L331.4586,11.4866 L331.3916,28.1716 L330.4436,28.1676 L330.4486,26.9576 C330.4636,23.2076 328.6786,19.9776 325.2456,19.9636 L321.6016,19.9486 L321.5286,38.1156 L329.1356,38.1456 C337.7956,38.1806 339.0916,31.0036 339.1046,27.9926 L339.1076,27.2546 L340.0556,27.2576 L340.0076,39.1406 L309.0106,39.0146 L309.0146,38.0636 Z" id="Fill-14"></path>
            </g>
        </g>
    </g>
</svg>