<?xml version="1.0" encoding="UTF-8"?>
<svg width="20px" height="16px" viewBox="0 0 20 16" version="1.1" xmlns="http://www.w3.org/2000/svg" xmlns:xlink="http://www.w3.org/1999/xlink">
    <!-- Generator: Sketch 46.2 (44496) - http://www.bohemiancoding.com/sketch -->
    <title>Menu - simple-line-icons</title>
    <desc>Created with Sketch.</desc>
    <defs></defs>
    <g id="STYLE-GUIDE" stroke="none" stroke-width="1" fill="none" fill-rule="evenodd">
        <g id="styleguide" transform="translate(-179.000000, -340.000000)" fill="#2D2D2D">
            <g id="menu" transform="translate(165.000000, 326.000000)">
                <path d="M14.5273438,16.0390625 C14.4492184,15.9479162 14.3906252,15.8535161 14.3515625,15.7558594 C14.3124998,15.6582026 14.2929688,15.5442715 14.2929688,15.4140625 C14.2929688,15.2968744 14.3124998,15.1861984 14.3515625,15.0820312 C14.3906252,14.9778641 14.4492184,14.8867191 14.5273438,14.8085938 C14.6054691,14.7304684 14.6966141,14.6718752 14.8007812,14.6328125 C14.9049484,14.5937498 15.0156244,14.5742188 15.1328125,14.5742188 L32.9648438,14.5742188 C33.0820318,14.5742188 33.1927078,14.5937498 33.296875,14.6328125 C33.4010422,14.6718752 33.4921871,14.7304684 33.5703125,14.8085938 C33.6484379,14.8867191 33.7070311,14.9778641 33.7460938,15.0820312 C33.7851564,15.1861984 33.8046875,15.2968744 33.8046875,15.4140625 C33.8046875,15.5442715 33.7851564,15.6582026 33.7460938,15.7558594 C33.7070311,15.8535161 33.6484379,15.9479162 33.5703125,16.0390625 C33.4921871,16.1171879 33.4010422,16.1757811 33.296875,16.2148438 C33.1927078,16.2539064 33.0820318,16.2734375 32.9648438,16.2734375 L15.1328125,16.2734375 C15.0156244,16.2734375 14.9049484,16.2539064 14.8007812,16.2148438 C14.6966141,16.1757811 14.6054691,16.1171879 14.5273438,16.0390625 Z M33.5703125,21.6054688 C33.6484379,21.6835941 33.7070311,21.7747391 33.7460938,21.8789062 C33.7851564,21.9830734 33.8046875,22.0937494 33.8046875,22.2109375 C33.8046875,22.3281256 33.7851564,22.4388016 33.7460938,22.5429688 C33.7070311,22.6471359 33.6484379,22.7382809 33.5703125,22.8164062 C33.4921871,22.8945316 33.4010422,22.9531248 33.296875,22.9921875 C33.1927078,23.0312502 33.0820318,23.0507812 32.9648438,23.0507812 L15.1328125,23.0507812 C15.0156244,23.0507812 14.9049484,23.0312502 14.8007812,22.9921875 C14.6966141,22.9531248 14.6054691,22.8945316 14.5273438,22.8164062 C14.4492184,22.7382809 14.3906252,22.6471359 14.3515625,22.5429688 C14.3124998,22.4388016 14.2929688,22.3281256 14.2929688,22.2109375 C14.2929688,22.0937494 14.3124998,21.9830734 14.3515625,21.8789062 C14.3906252,21.7747391 14.4492184,21.6835941 14.5273438,21.6054688 C14.6054691,21.5273434 14.6966141,21.4687502 14.8007812,21.4296875 C14.9049484,21.3906248 15.0156244,21.3710938 15.1328125,21.3710938 L32.9648438,21.3710938 C33.0820318,21.3710938 33.1927078,21.3906248 33.296875,21.4296875 C33.4010422,21.4687502 33.4921871,21.5273434 33.5703125,21.6054688 Z M33.5703125,28.3828125 C33.6484379,28.4609379 33.7070311,28.5520828 33.7460938,28.65625 C33.7851564,28.7604172 33.8046875,28.8710932 33.8046875,28.9882812 C33.8046875,29.1184902 33.7851564,29.2324214 33.7460938,29.3300781 C33.7070311,29.4277349 33.6484379,29.522135 33.5703125,29.6132812 C33.4921871,29.6914066 33.4010422,29.7499998 33.296875,29.7890625 C33.1927078,29.8281252 33.0820318,29.8476562 32.9648438,29.8476562 L15.1328125,29.8476562 C15.0156244,29.8476562 14.9049484,29.8281252 14.8007812,29.7890625 C14.6966141,29.7499998 14.6054691,29.6914066 14.5273438,29.6132812 C14.4492184,29.522135 14.3906252,29.4277349 14.3515625,29.3300781 C14.3124998,29.2324214 14.2929688,29.1184902 14.2929688,28.9882812 C14.2929688,28.8710932 14.3124998,28.7604172 14.3515625,28.65625 C14.3906252,28.5520828 14.4492184,28.4609379 14.5273438,28.3828125 C14.6054691,28.3046871 14.6966141,28.2460939 14.8007812,28.2070312 C14.9049484,28.1679686 15.0156244,28.1484375 15.1328125,28.1484375 L32.9648438,28.1484375 C33.0820318,28.1484375 33.1927078,28.1679686 33.296875,28.2070312 C33.4010422,28.2460939 33.4921871,28.3046871 33.5703125,28.3828125 Z" id="Menu---simple-line-icons"></path>
            </g>
        </g>
    </g>
</svg>